<?xml version="1.0" standalone="no"?><!DOCTYPE svg PUBLIC "-//W3C//DTD SVG 1.1//EN" "http://www.w3.org/Graphics/SVG/1.1/DTD/svg11.dtd"><svg t="1609725018382" class="icon" viewBox="0 0 1024 1024" version="1.1" xmlns="http://www.w3.org/2000/svg" p-id="2647" xmlns:xlink="http://www.w3.org/1999/xlink" width="200" height="200"><defs><style type="text/css"></style></defs><path d="M733.007448 73.163034V0H292.299034v73.163034H71.538759L70.62069 1024l368.604689-0.882759v-73.021793h-293.782069L145.054897 146.043586h147.279448v73.304276h440.814345V146.043586h146.926344v438.907586H953.37931v-512h-220.371862z m-73.445517 72.880552H365.744552V73.163034h293.817379v72.880552z m-367.227586 364.649931l293.817379 0.670897v73.622069H292.334345v-74.151724z m0-145.337379H733.042759v73.622069H292.299034v-73.622069zM806.488276 804.440276l146.926345-0.388414v73.021793H806.488276v146.043586h-73.445517v-146.043586H586.151724v-73.021793h146.891035v-146.043586h73.445517v146.432zM292.334345 658.008276l146.891034-0.600276V730.924138l-146.891034 1.271172v-74.151724z" p-id="2648"></path></svg>