<?xml version="1.0" standalone="no"?><!DOCTYPE svg PUBLIC "-//W3C//DTD SVG 1.1//EN" "http://www.w3.org/Graphics/SVG/1.1/DTD/svg11.dtd"><svg t="1599792241208" class="icon" viewBox="0 0 1026 1024" version="1.1" xmlns="http://www.w3.org/2000/svg" p-id="1954" xmlns:xlink="http://www.w3.org/1999/xlink" width="200.390625" height="200"><defs><style type="text/css"></style></defs><path d="M1017.719006 567.363446l-43.759957 16.452984c-6.006994 2.251998-10.921989 7.917992-10.921989 12.491988 0 4.437996 3.890996 18.841982 9.76199 21.572979l42.119959 19.93298c5.870994 2.730997 8.465992 9.89999 5.802994 15.837985l-43.963957 97.552904c-2.729997 5.939994-9.692991 8.533992-15.495985 5.870995l-42.188959-19.933981c-5.869994-2.729997-19.045981 3.413997-22.527978 6.485994-3.412997 2.934997-4.368996 10.44499-2.115997 16.588984l16.042984 44.713956c2.251998 6.143994-0.887999 13.039987-6.894993 15.359985L804.999214 857.429163c-6.007994 2.252998-12.834987-0.954999-14.949986-7.167993l-16.179984-44.509957c-2.184998-6.211994-15.905984-11.331989-20.34398-11.604989-4.436996-0.205-10.30799 4.299996-12.969987 10.30799L721.099296 847.599172c-2.729997 5.939994-9.693991 8.601992-15.564985 5.802995l-95.436907-44.987956c-5.733994-2.662997-8.396992-9.89899-5.665994-15.837985L623.889391 749.499268c2.729997-5.939994-3.344997-19.524981-6.348994-22.937978-2.866997-3.480997-10.23999-4.436996-16.246984-2.183997l-43.759957 16.451984c-5.937994 2.252998-12.764988-0.955999-14.949986-7.031994l-36.316964-100.829901c-2.252998-6.211994 0.886999-13.037987 6.894993-15.359985l43.689957-16.382984c6.007994-2.321998 11.059989-16.383984 11.263989-20.95798 0.342-4.437996-4.163996-10.44499-10.03499-13.243987l-42.188959-19.86598c-5.801994-2.798997-8.396992-9.89799-5.733994-15.837985l44.031957-97.552905c2.729997-5.938994 9.693991-8.600992 15.495985-5.801994l42.189958 19.864981c5.869994 2.730997 19.045981-3.480997 22.389979-6.484994 3.481997-2.934997 4.437996-10.51299 2.252997-16.656984L620.339394 380.039629c-2.183998-6.212994 0.887999-13.039987 6.894993-15.359985l98.576904-37.137964c6.075994-2.251998 12.765988 0.887999 15.086985 7.031993l16.042985 44.714957c2.252998 6.211994 15.973984 11.263989 20.41198 11.536988 4.504996 0.341 10.37599-4.300996 13.037987-10.30899l19.455981-43.143957c2.662997-5.939994 9.625991-8.532992 15.496985-5.870995l95.368907 44.987956c5.869994 2.729997 8.395992 9.89799 5.733994 15.837985l-19.523981 43.143958c-2.593997 5.939994 3.412997 19.455981 6.347994 23.005977 2.935997 3.481997 10.23999 4.505996 16.315984 2.183998l43.622958-16.451984c6.074994-2.252998 12.833987 0.955999 15.017985 7.099993l36.385964 100.692902c2.252998 6.212994-0.886999 13.106987-6.894993 15.359985z m-142.74586-16.246984c-22.322978-61.78194-89.429913-93.456909-149.913854-70.587931-60.551941 22.800978-91.476911 91.476911-69.221932 153.25885 22.390978 61.84994 89.496913 93.524909 150.049853 70.723931 60.415941-22.800978 91.409911-91.476911 69.085933-153.39485z m-414.378596 296.139711H143.08686v-36.589965h317.50769v36.589965z m-317.50769-524.219488h317.50769v36.591964H143.08686v-36.590964z m244.530761 361.677646H143.08686v-36.590964h244.530761v36.589964zM143.08686 485.579526h244.530761v36.589964H143.08686v-36.589964zM810.869208 170.666833c0-67.174934-53.519948-121.924881-119.260883-121.924881H459.979551c-57.547944 0-105.743897 41.915959-116.802886 97.552905h253.131753c80.486921 0 147.865856 58.641943 163.49884 136.259867-15.700985 1.911998-31.265969 5.461995-46.693954 9.89999-11.127989-55.500946-59.323942-97.416905-116.804886-97.416904H166.979837c-65.739936 0-119.261884 54.749947-119.261884 121.92388v536.370477c0 67.174934 53.520948 121.924881 119.261884 121.924881h429.329581c49.629952 0 92.22791-31.266969 110.181892-75.502927 15.154985 4.777995 30.58297 8.464992 46.420955 10.78599C729.770287 976.349047 668.602347 1023.999 596.309418 1023.999H166.979837C74.889927 1023.999 0 947.404075 0 853.332167v-536.369477c0-94.139908 74.888927-170.667833 166.979837-170.667833h128.477874C307.1997 63.829938 376.149633 0 459.980551 0H691.609325C783.699235 0 858.589162 76.526925 858.589162 170.666833v116.257887c-15.700985-3.276997-31.607969-5.392995-47.718954-6.143994V170.666833z" p-id="1955"></path></svg>