<?xml version="1.0" standalone="no"?><!DOCTYPE svg PUBLIC "-//W3C//DTD SVG 1.1//EN" "http://www.w3.org/Graphics/SVG/1.1/DTD/svg11.dtd"><svg t="1599792137197" class="icon" viewBox="0 0 1536 1024" version="1.1" xmlns="http://www.w3.org/2000/svg" p-id="3287" xmlns:xlink="http://www.w3.org/1999/xlink" width="300" height="200"><defs><style type="text/css"></style></defs><path d="M1449.890505 1023.994H917.242626c-47.700721 0-86.015496-37.54678-86.015496-84.223506V736.848683c0-46.676727 38.314775-84.223507 86.015496-84.223507h214.526743v-84.052507H404.221632v84.052507h214.526743c47.700721 0 86.015496 38.570774 86.015496 85.247501v201.897817c0 46.676727-38.314775 84.223507-86.015496 84.223506H86.101495C38.399775 1023.994 0 986.44722 0 939.770494V736.848683c0-46.676727 38.399775-84.223507 86.100496-84.223507h214.441743V467.112263h404.221632V371.367824H455.506331c-47.700721 0-86.100496-37.54678-86.100495-84.223506V84.223507c0-46.676727 38.399775-84.223507 86.100495-84.223507h597.4155c47.700721 0 86.100496 38.569774 86.100495 85.247501v201.897817c0 46.676727-38.399775 84.223507-86.100495 84.223506H808.528263v95.743439h426.920498v185.512913h214.441744c47.700721 0 86.100496 38.570774 86.100495 85.247501v201.897817c0 46.676727-38.399775 84.223507-86.100495 84.223506zM115.114326 736.848683c-16.639903 0-29.01383 13.226922-29.01383 28.415833v147.114138c0 16.212905 13.482921 28.415834 29.01383 28.415834h474.621219c16.553903 0 29.01283-13.226922 29.01283-28.415834V765.264516c0-16.212905-13.482921-28.415834-29.01283-28.415833H115.114326z m908.794675-448.765371c16.639903 0 29.01283-13.140923 29.01283-28.415833V112.63934c0-16.212905-13.482921-28.415834-29.01283-28.415833H484.520161c-16.554903 0-29.01383 13.226922-29.01383 28.415833v147.029139c0 16.297905 13.482921 28.414834 29.01383 28.414833h539.38884z m425.981504 477.181204c0-16.212905-13.482921-28.415834-29.01383-28.415833H946.255456c-16.553903 0-29.01283 13.226922-29.01283 28.415833v147.114138c0 16.212905 13.482921 28.415834 29.01283 28.415834h474.621219c16.639903 0 29.01383-13.226922 29.01383-28.415834V765.264516z" p-id="3288"></path></svg>