<?xml version="1.0" standalone="no"?><!DOCTYPE svg PUBLIC "-//W3C//DTD SVG 1.1//EN" "http://www.w3.org/Graphics/SVG/1.1/DTD/svg11.dtd"><svg t="1609725025391" class="icon" viewBox="0 0 1160 1024" version="1.1" xmlns="http://www.w3.org/2000/svg" p-id="2903" xmlns:xlink="http://www.w3.org/1999/xlink" width="226.5625" height="200"><defs><style type="text/css"></style></defs><path d="M1030.703326 71.793947H426.615615c10.238775 20.47755 13.6517 44.368024 17.064625 64.845574h590.436011c37.542174 0 64.845573 30.716324 64.845573 64.845573v597.261861c0 37.542174-27.303399 64.845573-64.845573 68.258499H515.351663v64.845573h515.351663c71.671423 0 129.691147-61.432649 129.691147-133.104072V204.898019c0-71.671423-58.019724-133.104072-129.691147-133.104072M324.227867 382.370115H129.691147C58.019724 382.370115 0 443.802764 0 515.474187v255.969369c0 58.019724 37.542174 112.626522 95.561898 129.691147V1024h64.845573v-180.885021h-30.716324c-37.542174 0-68.258498-30.716324-64.845574-68.258498v-255.969369c0-37.542174 30.716324-68.258498 64.845574-68.258499h191.123795c37.542174 0 68.258498 30.716324 64.845574 68.258499v255.969369c0 13.6517-3.412925 23.890474-10.238775 34.129249-10.238775 20.47755-34.129249 34.129249-58.019723 34.129249h-23.890475V1024h64.845574v-119.452372c44.368024-13.6517 78.497273-51.193874 92.148972-95.561898 3.412925-10.238775 3.412925-23.890474 3.412925-34.129249v-255.969369c0-75.084348-58.019724-136.516997-129.691147-136.516997M225.253045 0.122524C139.929922-3.290401 68.258498 64.968097 64.845573 153.704145 61.432649 239.027268 129.691147 310.698692 218.427195 314.111617c85.323123 3.412925 160.407471-64.845573 160.407471-153.581622v-3.412925c0-85.323123-68.258498-156.994546-153.581621-156.994546z m0 245.730594C177.472096 249.266043 136.516997 208.310944 133.104072 160.529995 133.104072 109.336121 170.646246 68.381022 221.84012 64.968097 273.033994 64.968097 313.989093 102.510272 313.989093 153.704145v3.412925c0 47.780949-37.542174 88.736048-88.736048 88.736048z m327.640792 457.33194c-3.412925 0-10.238775 0-13.6517-3.412925-13.6517-6.82585-17.064625-23.890474-10.238774-37.542175l112.626522-191.123795c3.412925-6.82585 13.6517-13.6517 23.890474-13.6517 10.238775 0 17.064625 3.412925 23.890475 13.6517l51.193874 85.323123 68.258498-75.084348c10.238775-10.238775 27.303399-10.238775 37.542174-3.412925l40.955099 37.542174 85.323123-225.253045c3.412925-10.238775 13.6517-17.064625 27.3034-17.064624 3.412925 0 6.82585 0 10.238774 3.412925 13.6517 0 20.47755 17.064625 17.064625 30.716324l-98.974823 262.795219c-3.412925 6.82585-10.238775 13.6517-20.477549 17.064624h-6.82585c-6.82585 0-13.6517-3.412925-17.064625-6.82585l-51.193874-47.780948-75.084348 81.910198c-6.82585 6.82585-13.6517 10.238775-20.477549 10.238774h-3.412925c-6.82585 0-17.064625-6.82585-20.47755-13.651699l-47.780949-75.084349-92.148972 153.581622c-3.412925 10.238775-10.238775 13.6517-20.47755 13.6517" p-id="2904"></path></svg>