<?xml version="1.0" standalone="no"?><!DOCTYPE svg PUBLIC "-//W3C//DTD SVG 1.1//EN" "http://www.w3.org/Graphics/SVG/1.1/DTD/svg11.dtd"><svg t="1600246078574" class="icon" viewBox="0 0 1024 1024" version="1.1" xmlns="http://www.w3.org/2000/svg" p-id="4651" xmlns:xlink="http://www.w3.org/1999/xlink" width="200" height="200"><defs><style type="text/css"></style></defs><path d="M642.9 357.4a110.9 110.9 0 1 0 221.8 0 110.9 110.9 0 1 0-221.8 0zM255.6 231.7v-49.3h136.2v49" p-id="4652"></path><path d="M262.6 231.7h-14v-56.3h150.2v56h-14v-42H262.6zM256 320.4h135.4v14H256z m0 53.8h135.4v14H256z m0 53.9h135.4v14H256z m0 53.8h135.4v14H256z m0 53.9h135.4v14H256z m0 53.8h135.4v14H256zM174.5 651.6h-29.7v-90.5h29.7v14h-15.7v62.5h15.7z" p-id="4653"></path><path d="M572.5 821H399.7v-14h172.8c14.7 0 26.6-12 26.6-26.7s-12-26.7-26.6-26.7h-35.1v0.1H102c-42.4 0-76.9-34.5-76.9-76.9S59.6 600 102 600h54.6v14H102c-34.7 0-62.9 28.2-62.9 62.9s28.2 62.9 62.9 62.9h429.5v-0.1h41c22.4 0 40.6 18.2 40.6 40.7S594.9 821 572.5 821z" p-id="4654"></path><path d="M762.7 888.3H374.2c-22.4 0-40.7-18.2-40.7-40.7s18.2-40.7 40.7-40.7h41v14h-41c-14.7 0-26.7 12-26.7 26.7s12 26.7 26.7 26.7h374.4V657.1h14v231.2z m50.4-281.6H694.4V489.2c-25-11-46.3-28.7-61.9-51.3-16.9-24.5-25.8-53.3-25.8-83.2 0-81.1 66-147.1 147.1-147.1s147.1 66 147.1 147.1c0 29.9-8.9 58.6-25.8 83.2-15.6 22.6-36.9 40.3-61.9 51.3v117.5z m-104.7-14h90.7V479.8l4.4-1.8c50.6-20.4 83.3-68.9 83.3-123.4 0-73.4-59.7-133.1-133.1-133.1s-133.1 59.7-133.1 133.1c0 54.5 32.7 102.9 83.3 123.4l4.4 1.8v112.9z" p-id="4655"></path><path d="M753.8 664.1c-33.1 0-60-26.9-60-60h14c0 25.4 20.7 46 46 46s46-20.7 46-46h14c0 33.1-26.9 60-60 60z m-7-278.4h14v158.9h-14z" p-id="4656"></path><path d="M754 395.8l-45.5-45.5 9.9-9.9L754 376l35.2-35.2 9.9 9.9z m-12.27-278.563l14-0.07 0.16 31.2-14 0.07z m-116.836 37.017l12.089-7.061 15.737 26.94-12.089 7.062z m-82.664 90.548l6.938-12.16 27.1 15.463-6.938 12.16z m-26.459 105.782l31.2-0.159 0.072 14-31.2 0.159z m30.134 118.726l26.942-15.737 7.061 12.089-26.94 15.737z m382.822-9.808l6.938-12.16 27.1 15.462-6.938 12.16z m29.15-116.218l31.2-0.159 0.071 14-31.2 0.159z m-32.776-101.372l26.941-15.737 7.062 12.089L932.163 254z m-79.067-71.281l15.463-27.1 12.16 6.938-15.462 27.1zM711.4 672.2h14v40.7h-14zM782.2 672.2h14v97h-14zM454.7 700.5H192.8c-5 0-9-4-9-9V238.3c0-5 4-9 9-9h261.9c5 0 9 4 9 9v453.3c0 4.9-4 8.9-9 8.9z m-256.9-14h251.9V243.3H197.8v443.2zM704.7 530.5h98.2v14h-98.2zM704.7 561.4h98.2v14h-98.2zM124.7 781.4h97v14h-97zM257.4 781.4h33v14h-33z" p-id="4657"></path></svg>