<?xml version="1.0" standalone="no"?><!DOCTYPE svg PUBLIC "-//W3C//DTD SVG 1.1//EN" "http://www.w3.org/Graphics/SVG/1.1/DTD/svg11.dtd"><svg t="1600244478356" class="icon" viewBox="0 0 1024 1024" version="1.1" xmlns="http://www.w3.org/2000/svg" p-id="3431" xmlns:xlink="http://www.w3.org/1999/xlink" width="200" height="200"><defs><style type="text/css"></style></defs><path d="M436.4 866h423.1v0.1H436.4v-0.1z m-32 25.3h488.9v7.7H404.4v-7.7z" p-id="3432"></path><path d="M550.5 895.1h-25.3l6.3-271.8h12.6l6.4 271.8z m-37-383.6l1.3-0.3c12.6 14.9 25 68.1 24.9 96.7-3.6-4-8.9-0.9-10.8 1.7-11.2-27-21.3-79.6-15.4-98.1z m129.7 141l-0.4 1.3c-19.3 3.6-71.5-11.9-96.3-26.3 5.1-1.3 5.1-7.3 3.9-10.3 28.8 3.5 79.6 20.9 92.8 35.3z m-190.7 40.3l0.9 1c19.1-4.4 60.9-39.6 78-62.6-5.3 0.9-7.6-4.6-7.6-8-25.3 15.1-65 51.3-71.3 69.6z" p-id="3433"></path><path d="M529.3 621.8c0 4.5 3.6 8.1 8.1 8.1s8.1-3.6 8.1-8.1-3.6-8.1-8.1-8.1-8.1 3.6-8.1 8.1z m135.1 270.3h-14.1l3.6-152h7.1l3.4 152zM717.7 725l0.1 0.8c-8.3 7.1-38 14.1-54.1 14.1 2.2-2.1 0.5-4.9-1-6 15.2-6.6 44.7-12.3 55-8.9z m-78.6 72.7c-0.3-0.1-0.5-0.1-0.6-0.3-2.1-10.8 6.6-40.1 14.5-53.9 0.6 3 4.1 3 5.8 2.2-2.1 16.1-11.6 44.6-19.7 52z m-23-106.7c-0.1 0.3-0.4 0.3-0.5 0.5 2.4 10.7 22.1 33.9 35.2 43.4-0.5-3 2.6-4.2 4.4-4.4-8.4-13.8-28.7-35.9-39.1-39.5z" p-id="3434"></path><path d="M652.5 738.1c0 2.6 2.1 4.5 4.5 4.5s4.5-2.1 4.5-4.5c0-2.6-2.1-4.5-4.5-4.5-2.5 0-4.5 2-4.5 4.5z m211.5 154h-14.1l3.6-152h7.1l3.4 152z m14.1-211.2l0.8 0.3c1.7 10.8-7.7 39.8-16.2 53.6-0.5-3-4-3-5.7-2.3 2.5-16.3 12.9-44.4 21.1-51.6zM899.3 786c-0.3 0.1-0.4 0.4-0.5 0.4-10.3-3.9-30.8-26.5-38.4-40.6 2.8 0.9 4.6-1.9 4.9-3.7 12.6 10.2 31.8 33.2 34 43.9z m-103-35.9c0.1 0.3 0 0.5 0.1 0.6 10.4 3.5 40.6-1.3 55.4-7.3-2.8-1-2.3-4.4-1.4-6-16.2-0.1-45.7 5.7-54.1 12.7z" p-id="3435"></path><path d="M851.8 739.6c0 2.8 2.3 5.1 5.1 5.1s5.1-2.3 5.1-5.1-2.3-5.1-5.1-5.1-5.1 2.3-5.1 5.1z m-91.3 155.5h-36.7l9.2-394.3h18.2l9.3 394.3z m95.4-511.2l1.4 1.4c-8.1 27.2-62.6 84.6-97.6 107.4 1.9-7.6-6-11.4-10.8-11.8 23.9-35.3 79.8-89.5 107-97z" p-id="3436"></path><path d="M788 653.4c-0.6 0.1-1.2 0.3-1.8 0.5-19.7-20.6-42.5-96.3-44.8-138 5.5 5.4 13 0.5 15.5-3.6 18.7 38.2 38 113.8 31.1 141.1zM587.2 454.2c-0.1 0.6-0.3 1.2-0.5 1.8 20.6 19.7 96.3 42.5 138 44.8-5.4-5.5-0.5-13 3.6-15.5-38.3-18.6-113.7-38-141.1-31.1z m143.1 47.3c0 6.6 5.3 11.8 11.8 11.8 6.6 0 11.8-5.3 11.8-11.8s-5.3-11.8-11.8-11.8c-6.5-0.1-11.8 5.2-11.8 11.8zM441.7 895.1h-14.4l3.6-154.6h7.2l3.6 154.6z" p-id="3437"></path><path d="M495 728.8l0.1 0.8c-8.9 6.8-39.4 12.5-55.6 11.7 2.3-1.9 0.8-5-0.6-6.3 15.6-5.7 45.8-10.2 56.1-6.2z m-83.5 69.9l-0.6-0.3c-1.5-11 8.7-40.3 17.6-54.1 0.5 3 4 3.1 5.8 2.4-3.2 16.4-14.3 44.9-22.8 52z m-17.9-109.5l-0.6 0.4c2.1 10.9 20.8 35.6 33.5 45.9-0.4-3 2.8-4.1 4.6-4.1-7.8-14.5-27.3-38-37.5-42.2z m35.9 50.7c0 2.6 2.1 4.6 4.6 4.6 2.6 0 4.6-2.1 4.6-4.6 0-2.6-2.1-4.6-4.6-4.6-2.6-0.1-4.6 2.1-4.6 4.6zM182.8 449.9h41.3c15.4 0 27.9-12.5 27.9-27.9s-12.5-27.9-27.9-27.9h-41.3c-15.4 0-27.9 12.5-27.9 27.9s12.5 27.9 27.9 27.9z m-3 188.9h41.3c15.4 0 27.9-12.5 27.9-27.9 0-15.4-12.5-27.9-27.9-27.9h-41.3c-15.4 0-27.9 12.5-27.9 27.9 0 15.4 12.5 27.9 27.9 27.9z m0 188.8h41.3c15.4 0 27.9-12.5 27.9-27.9 0-15.4-12.5-27.9-27.9-27.9h-41.3c-15.4 0-27.9 12.5-27.9 27.9 0 15.4 12.5 27.9 27.9 27.9z m3-566.6h41.3c15.4 0 27.9-12.5 27.9-27.9s-12.5-27.9-27.9-27.9h-41.3c-15.4 0-27.9 12.5-27.9 27.9s12.5 27.9 27.9 27.9z m172.9 0H397c15.4 0 27.9-12.5 27.9-27.9s-12.5-27.9-27.9-27.9h-41.3c-15.4 0-27.9 12.5-27.9 27.9s12.5 27.9 27.9 27.9z m0 188.9H397c15.4 0 27.9-12.5 27.9-27.9s-12.5-27.9-27.9-27.9h-41.3c-15.4 0-27.9 12.5-27.9 27.9s12.5 27.9 27.9 27.9z" p-id="3438"></path><path d="M986.5 190H630.4V39c0-20.4-16.6-37-37-37H37.5C17.1 2 0.5 18.6 0.5 39v948c0 20.4 16.6 37 37 37h948.9c20.4 0 37-16.6 37-37V227c0.1-20.4-16.5-37-36.9-37z m-13 784h-923V52h529.9v187.6h4.3v0.4h388.9v734z" p-id="3439"></path></svg>