<?xml version="1.0" standalone="no"?><!DOCTYPE svg PUBLIC "-//W3C//DTD SVG 1.1//EN" "http://www.w3.org/Graphics/SVG/1.1/DTD/svg11.dtd"><svg t="1609724997247" class="icon" viewBox="0 0 1057 1024" version="1.1" xmlns="http://www.w3.org/2000/svg" p-id="1875" xmlns:xlink="http://www.w3.org/1999/xlink" width="206.4453125" height="200"><defs><style type="text/css"></style></defs><path d="M1025.26209 229.072419L601.812992 15.167867A164.689329 164.689329 0 0 0 529.14622 0.039967a166.704181 166.704181 0 0 0-72.666772 15.1279L33.030351 229.072419c-39.966725 20.247605-39.966725 53.211895 0 73.42647l423.449097 213.838492a182.096324 182.096324 0 0 0 145.333544 0l423.449098-213.937583c39.966725-20.115484 39.966725-53.178865 0-73.327379z m-454.497628 233.128217a115.441076 115.441076 0 0 1-80.263752 0L102.394088 266.429746l388.106622-195.86998a96.217412 96.217412 0 0 1 39.966724-7.200617 98.100142 98.100142 0 0 1 40.297028 7.200617l387.776319 195.969071zM529.14622 792.768387a206.968178 206.968178 0 0 1-90.833465-19.620029L23.451549 563.735934a35.309445 35.309445 0 0 1-19.487907-49.149162 40.131876 40.131876 0 0 1 55.821293-11.890926l414.861206 209.544545a142.889298 142.889298 0 0 0 109.000158 0l414.861207-209.412424a36.333386 36.333386 0 0 1 52.848561 9.083347 37.060054 37.060054 0 0 1-16.515176 51.82462l-414.861206 209.412424a203.731204 203.731204 0 0 1-90.833465 19.620029z m0.990911 231.212455a207.397573 207.397573 0 0 1-90.833465-19.586998L24.44246 794.94839a35.276415 35.276415 0 0 1-19.487907-49.116132 40.098846 40.098846 0 0 1 55.821293-11.890926l414.861206 209.544545a143.748087 143.748087 0 0 0 109.330461 0l414.861207-209.544545a35.8049 35.8049 0 0 1 52.518257 9.083346 37.027023 37.027023 0 0 1-16.515175 51.824621l-414.530903 209.544545a206.076359 206.076359 0 0 1-91.163768 19.586998z" p-id="1876"></path></svg>