<?xml version="1.0" standalone="no"?><!DOCTYPE svg PUBLIC "-//W3C//DTD SVG 1.1//EN" "http://www.w3.org/Graphics/SVG/1.1/DTD/svg11.dtd"><svg t="1609725007172" class="icon" viewBox="0 0 1024 1024" version="1.1" xmlns="http://www.w3.org/2000/svg" p-id="2259" xmlns:xlink="http://www.w3.org/1999/xlink" width="200" height="200"><defs><style type="text/css"></style></defs><path d="M828.11871 508.696774l-184.650323 371.216516 11.230968 141.708387 119.576774-76.700903 184.650323-371.084387z m64.743225-130.972903l-43.272258 87.33729 131.138065 65.139613L1024 442.632258zM109.667097 950.99871a36.665806 36.665806 0 0 1-36.665807-36.56671V109.700129a36.665806 36.665806 0 0 1 36.665807-36.56671h620.676129a36.665806 36.665806 0 0 1 36.665806 36.56671v292.599742a36.500645 36.500645 0 1 0 73.001291 0V73.133419A73.100387 73.100387 0 0 0 767.009032 0H73.00129A73.100387 73.100387 0 0 0 0 73.133419v877.733162A73.100387 73.100387 0 0 0 73.00129 1024h476.325162a36.56671 36.56671 0 0 0 0-73.133419H109.667097zM638.843871 218.40929H199.845161a36.599742 36.599742 0 0 0 0 73.166452h438.99871a36.665806 36.665806 0 1 0 0-73.298581z m0 219.433291H199.845161a36.56671 36.56671 0 0 0 0 73.133419h438.99871a36.632774 36.632774 0 1 0 0-73.265548z m-219.334194 219.43329H199.845161a36.56671 36.56671 0 0 0 0 73.133419h219.664516a36.632774 36.632774 0 1 0 0-73.265548z" p-id="2260"></path></svg>