<?xml version="1.0" standalone="no"?><!DOCTYPE svg PUBLIC "-//W3C//DTD SVG 1.1//EN" "http://www.w3.org/Graphics/SVG/1.1/DTD/svg11.dtd"><svg t="1600245967980" class="icon" viewBox="0 0 1024 1024" version="1.1" xmlns="http://www.w3.org/2000/svg" p-id="3570" xmlns:xlink="http://www.w3.org/1999/xlink" width="200" height="200"><defs><style type="text/css"></style></defs><path d="M608 160a64 64 0 0 1 64 64v128c28.384 0 53.888 12.32 71.456 31.904C758.72 400.864 768 423.36 768 448v160a16 16 0 1 0 32 0V480h64v128a80 80 0 1 1-160 0V448a32 32 0 0 0-32-32v384h32v64H128v-64h32V224a64 64 0 0 1 64-64h384z m0 64H224v576h384V224zM352 704v64h-96v-64h96z m224-416v256H256V288h320z m-64 64H320v128h192V352z" p-id="3571"></path></svg>