<?xml version="1.0" standalone="no"?><!DOCTYPE svg PUBLIC "-//W3C//DTD SVG 1.1//EN" "http://www.w3.org/Graphics/SVG/1.1/DTD/svg11.dtd"><svg t="1600246065562" class="icon" viewBox="0 0 1024 1024" version="1.1" xmlns="http://www.w3.org/2000/svg" p-id="4389" xmlns:xlink="http://www.w3.org/1999/xlink" width="200" height="200"><defs><style type="text/css"></style></defs><path d="M609.28 627.2c-7.168 0-12.8 5.632-12.8 12.8 0 38.4-24.064 70.656-57.344 76.8-7.168 1.536-11.776 8.192-10.24 14.848 1.024 6.144 6.656 10.24 12.8 10.24h2.56c45.056-8.704 78.336-51.2 78.336-102.4A13.824 13.824 0 0 0 609.28 627.2z" p-id="4390"></path><path d="M636.928 545.28c-47.104-61.44-72.704-98.816-104.448-175.104-0.512-1.536-2.048-2.048-3.584-3.584-1.024-1.024-1.536-2.56-3.072-3.584-1.536-0.512-3.072 0-4.608 0-2.048 0-3.584-0.512-5.12 0-2.048 1.024-3.072 3.072-4.096 4.096s-2.56 1.536-3.072 3.072c-38.912 90.112-59.392 116.736-104.448 175.104-28.16 35.328-40.96 68.096-40.96 105.472 0 86.528 70.144 157.184 156.672 157.184s156.672-70.656 156.672-157.184c0.512-37.376-11.776-69.632-39.936-105.472zM520.704 782.336c-72.192 0-131.072-58.88-131.072-131.584 0-31.232 10.752-58.88 35.328-89.6 42.496-55.808 64-84.992 95.744-153.6 27.648 61.44 53.248 98.304 96.256 153.6 24.576 30.72 35.328 58.368 35.328 89.6a132.198 132.198 0 0 1-131.584 131.584z" p-id="4391"></path><path d="M820.224 616.448a63.488 63.488 0 1 0 0-126.976h-3.584V246.784h3.584a63.488 63.488 0 1 0 0-126.976H488.96v-51.2c0-16.384-13.312-30.208-30.208-30.208h-107.52c-16.384 0-30.208 13.312-30.208 30.208v51.2H203.776a63.488 63.488 0 1 0 0 126.976h3.584V488.96h-3.584a63.488 63.488 0 1 0 0 126.976h3.584v242.176h-3.584a63.488 63.488 0 1 0 0 126.976h616.448a63.488 63.488 0 1 0 0-126.976h-3.584V615.936h3.584z m-473.6-547.84A4.589 4.589 0 0 1 351.232 64h108.032a4.589 4.589 0 0 1 4.608 4.608v51.2H346.624v-51.2zM791.04 858.112h-21.504c-7.168 0-12.8 5.632-12.8 12.8s5.632 12.8 12.8 12.8h50.688c20.992 0 37.888 16.896 37.888 37.888s-16.896 37.888-37.888 37.888H203.776c-20.992 0-37.888-16.896-37.888-37.888s16.896-37.888 37.888-37.888H312.32c7.168 0 12.8-5.632 12.8-12.8s-5.632-12.8-12.8-12.8h-79.36V615.936h79.36c7.168 0 12.8-5.632 12.8-12.8s-5.632-12.8-12.8-12.8H203.776c-20.992 0-37.888-16.896-37.888-37.888s16.896-37.888 37.888-37.888H312.32c7.168 0 12.8-5.632 12.8-12.8s-5.632-12.8-12.8-12.8h-79.36V246.784h79.36c7.168 0 12.8-5.632 12.8-12.8s-5.632-12.8-12.8-12.8H203.776c-20.992 0-37.888-16.896-37.888-37.888s16.896-37.888 37.888-37.888h616.448c20.992 0 37.888 16.896 37.888 37.888s-16.896 37.888-37.888 37.888h-50.688c-7.168 0-12.8 5.632-12.8 12.8s5.632 12.8 12.8 12.8h21.504V488.96h-21.504c-7.168 0-12.8 5.632-12.8 12.8s5.632 12.8 12.8 12.8h50.688c20.992 0 37.888 16.896 37.888 37.888s-16.896 37.888-37.888 37.888h-50.176c-7.168 0-12.8 5.632-12.8 12.8s5.632 12.8 12.8 12.8h20.48v242.176z" p-id="4392"></path></svg>