<?xml version="1.0" standalone="no"?><!DOCTYPE svg PUBLIC "-//W3C//DTD SVG 1.1//EN" "http://www.w3.org/Graphics/SVG/1.1/DTD/svg11.dtd"><svg t="1599792147367" class="icon" viewBox="0 0 1085 1024" version="1.1" xmlns="http://www.w3.org/2000/svg" p-id="3539" xmlns:xlink="http://www.w3.org/1999/xlink" width="211.9140625" height="200"><defs><style type="text/css"></style></defs><path d="M698.098 535.993c-18.171-7.007-36.793-12.902-55.641-17.796 35.213-18.352 66.475-44.157 90.854-75.411 37.583-48.162 57.446-105.888 57.446-166.729 0-73.187-28.892-141.925-81.373-193.645-52.481-51.72-122.23-80.195-196.493-80.195-74.264 0-144.012 28.474-196.493 80.195-52.481 51.72-81.374 120.458-81.374 193.645 0 60.952 19.864 118.567 57.447 166.729 24.491 31.365 55.754 57.059 90.854 75.411-36.342 9.343-71.442 22.579-104.962 39.708-49.433 25.137-94.127 57.949-132.951 97.546-38.825 39.596-70.652 84.754-94.466 134.361-24.491 50.942-40.066 105.22-46.16 161.39l-0.904 8.008 5.87 5.673a671.61 671.61 0 0 0 32.39 29.586l26.298 22.579 0.338-6.118v-4.56c0-241.917 198.976-438.01 444.451-438.01 41.872 0 82.503 5.673 120.876 16.35a310.097 310.097 0 0 1 63.993-48.717zM364.364 422.431c-39.727-39.152-61.51-91.094-61.51-146.374s21.896-107.334 61.51-146.374c39.728-39.152 92.434-60.618 148.527-60.618 56.092 0 108.912 21.577 148.526 60.618 39.728 39.152 61.51 91.094 61.51 146.374s-21.895 107.334-61.51 146.374c-39.614 39.04-92.434 60.618-148.526 60.618-56.093 0-108.8-21.577-148.527-60.618z m689.588 388.514v-32.033c0-15.905 10.948-29.475 25.733-33.59-5.982-27.028-16.817-52.388-31.489-74.967-13.543 7.34-30.924 5.45-42.323-5.784l-23.024-22.69a34.584 34.584 0 0 1-5.869-41.71 235.291 235.291 0 0 0-76.07-31.032c-4.288 14.57-17.944 25.36-34.083 25.36h-32.505c-16.14 0-29.908-10.79-34.084-25.36a235.291 235.291 0 0 0-76.07 31.032c7.45 13.347 5.531 30.476-5.868 41.71l-23.024 22.69c-11.4 11.234-28.78 13.236-42.323 5.784-14.672 22.579-25.507 47.939-31.489 74.967 14.785 4.226 25.733 17.685 25.733 33.59v32.033c0 15.906-10.948 29.475-25.733 33.59 5.982 27.029 16.817 52.388 31.489 74.967 13.543-7.34 30.924-5.45 42.323 5.784l23.024 22.69a34.584 34.584 0 0 1 5.869 41.71 235.291 235.291 0 0 0 76.069 31.032c4.289-14.57 17.945-25.36 34.084-25.36h32.505c16.139 0 29.908 10.79 34.084 25.36a235.291 235.291 0 0 0 76.069-31.032c-7.449-13.347-5.53-30.476 5.869-41.71l23.024-22.69c11.399-11.234 28.78-13.236 42.323-5.784 14.672-22.579 25.507-47.938 31.489-74.966-14.785-4.116-25.733-17.685-25.733-33.59zM850.574 915.61c-67.604 0-122.455-54.056-122.455-120.68 0-66.625 54.85-120.681 122.455-120.681 67.605 0 122.456 54.056 122.456 120.68 0 66.625-54.851 120.681-122.456 120.681z m-82.502-120.68c0 44.904 36.938 81.306 82.502 81.306 45.565 0 82.503-36.402 82.503-81.306 0-44.905-36.938-81.307-82.503-81.307-45.564 0-82.502 36.402-82.502 81.307z" p-id="3540"></path></svg>