<?xml version="1.0" standalone="no"?><!DOCTYPE svg PUBLIC "-//W3C//DTD SVG 1.1//EN" "http://www.w3.org/Graphics/SVG/1.1/DTD/svg11.dtd"><svg t="1599792142672" class="icon" viewBox="0 0 1144 1024" version="1.1" xmlns="http://www.w3.org/2000/svg" p-id="3413" xmlns:xlink="http://www.w3.org/1999/xlink" width="223.4375" height="200"><defs><style type="text/css"></style></defs><path d="M331.294 903.53a60.235 60.235 0 1 1 0 120.47 60.235 60.235 0 0 1 0-120.47z m240.941 0a60.235 60.235 0 1 1 0 120.47 60.235 60.235 0 0 1 0-120.47z m240.941 0a60.235 60.235 0 1 1 0 120.47 60.235 60.235 0 0 1 0-120.47zM963.765 0a180.706 180.706 0 0 1 180.706 180.706v481.882a180.706 180.706 0 0 1-180.706 180.706h-783.06A180.706 180.706 0 0 1 0 662.588V180.706A180.706 180.706 0 0 1 180.706 0h783.059z m0 90.353h-783.06a90.353 90.353 0 0 0-90.201 85.052l-0.151 5.3v481.883a90.353 90.353 0 0 0 85.052 90.203l5.3 0.15h783.06a90.353 90.353 0 0 0 90.202-85.052l0.15-5.3V180.705a90.353 90.353 0 0 0-85.052-90.202l-5.3-0.151zM573.259 521.939l5.21 6.234 7.139 8.885a145.167 145.167 0 0 0 215.762 19.817l5.903-5.812 34.033-35.6a30.118 30.118 0 0 1 45.96 38.702l-2.41 2.891-34.032 35.6a205.402 205.402 0 0 1-26.414 23.28c-89.148 65.897-213.986 48.971-281.81-36.02l-4.639-6.024-6.354-7.891a174.502 174.502 0 0 0-242.176-28.732 30.118 30.118 0 1 1-36.744-47.737A234.737 234.737 0 0 1 573.26 521.94z m239.917-371.35a120.47 120.47 0 1 1 0 240.94 120.47 120.47 0 0 1 0-240.94z m0 60.235a60.235 60.235 0 1 0 0 120.47 60.235 60.235 0 0 0 0-120.47z" p-id="3414"></path></svg>