<?xml version="1.0" standalone="no"?><!DOCTYPE svg PUBLIC "-//W3C//DTD SVG 1.1//EN" "http://www.w3.org/Graphics/SVG/1.1/DTD/svg11.dtd"><svg t="1609725003664" class="icon" viewBox="0 0 1024 1024" version="1.1" xmlns="http://www.w3.org/2000/svg" p-id="2131" xmlns:xlink="http://www.w3.org/1999/xlink" width="200" height="200"><defs><style type="text/css"></style></defs><path d="M887.348966 955.745103H68.148966V68.254897h702.675862l58.615172 58.050206 47.668966-47.810206L799.426207 0H0v1024h955.497931v-136.545103h-68.148965v68.290206z m34.251034-341.345103a101.835034 101.835034 0 0 0-68.502069 28.672l-238.697931-118.784a71.397517 71.397517 0 0 0 0-12.288 71.397517 71.397517 0 0 0 0-12.288l237.638621-118.784A102.4 102.4 0 1 0 819.2 307.2a71.397517 71.397517 0 0 0 0 12.288l-236.226207 118.784a102.4 102.4 0 1 0 0 147.456l236.226207 118.784a71.397517 71.397517 0 0 0 0 12.288 102.4 102.4 0 1 0 102.4-102.4zM702.322759 204.8l58.615172 58.014897 48.022069-47.774897-78.035862-78.494897H136.651034v750.909794h648.297932V819.2H204.8V204.8h497.522759z" p-id="2132"></path></svg>