<?xml version="1.0" standalone="no"?><!DOCTYPE svg PUBLIC "-//W3C//DTD SVG 1.1//EN" "http://www.w3.org/Graphics/SVG/1.1/DTD/svg11.dtd"><svg t="1599792126647" class="icon" viewBox="0 0 1024 1024" version="1.1" xmlns="http://www.w3.org/2000/svg" p-id="2907" xmlns:xlink="http://www.w3.org/1999/xlink" width="200" height="200"><defs><style type="text/css"></style></defs><path d="M591.99632 0v73.143a438.855 438.855 0 0 1 359.314 359.495H591.81432V0m0 0a73.143 73.143 0 0 0-73.143 73.143v359.495a73.143 73.143 0 0 0 73.143 73.143h359.496a73.143 73.143 0 0 0 72.045-85.211A511.998 511.998 0 0 0 603.88332 1.097 73.143 73.143 0 0 0 591.81432 0z" p-id="2908"></path><path d="M384.45532 189.988v340.295a109.714 109.714 0 0 0 109.714 109.714h340.295a385.095 385.095 0 0 1-376.867 310.856 399.358 399.358 0 0 1-64-5.303 383.998 383.998 0 0 1-9.142-755.562m1.097-73.143a86.674 86.674 0 0 0-13.531 1.28 457.14 457.14 0 0 0 9.691 900.02 468.478 468.478 0 0 0 75.885 5.85 460.067 460.067 0 0 0 449.096-371.564 73.143 73.143 0 0 0-73.143-85.576H494.16932a36.571 36.571 0 0 1-36.572-36.572V189.988a73.143 73.143 0 0 0-72.045-73.143z" p-id="2909"></path></svg>