<?xml version="1.0" standalone="no"?><!DOCTYPE svg PUBLIC "-//W3C//DTD SVG 1.1//EN" "http://www.w3.org/Graphics/SVG/1.1/DTD/svg11.dtd"><svg t="1609725010348" class="icon" viewBox="0 0 1024 1024" version="1.1" xmlns="http://www.w3.org/2000/svg" p-id="2387" xmlns:xlink="http://www.w3.org/1999/xlink" width="200" height="200"><defs><style type="text/css"></style></defs><path d="M802.133333 805.546667h71.68V1024h-71.68v-218.453333M952.32 689.493333H1024V1024h-71.68v-146.773333zM730.453333 730.453333V1024h-75.093333v-293.546667M512 877.226667h71.68V1024H512z" p-id="2388"></path><path d="M494.933333 750.933333L443.733333 699.733333l204.8-208.213333 157.013334 153.6 153.6-153.6 51.2 51.2-204.8 208.213333-157.013334-157.013333zM146.773333 218.453333h440.32v71.68H146.773333zM146.773333 440.32H512v-75.093333H146.773333v75.093333zM146.773333 587.093333h218.453334V512H146.773333v75.093333z" p-id="2389"></path><path d="M952.32 0H0v952.32h440.32v-75.093333H71.68V71.68h805.546667v368.64h75.093333V0z" p-id="2390"></path></svg>