<?xml version="1.0" standalone="no"?><!DOCTYPE svg PUBLIC "-//W3C//DTD SVG 1.1//EN" "http://www.w3.org/Graphics/SVG/1.1/DTD/svg11.dtd"><svg t="1609724991160" class="icon" viewBox="0 0 1181 1024" version="1.1" xmlns="http://www.w3.org/2000/svg" p-id="1747" xmlns:xlink="http://www.w3.org/1999/xlink" width="230.6640625" height="200"><defs><style type="text/css"></style></defs><path d="M467.101359 334.769496l-1.536 2.638768a36.785217 36.785217 0 0 0 5.828921-2.638768h-4.292921z m86.094736 95.074425h19.6923l-24.182145-41.787061-15.202455 26.269528a28.59322 28.59322 0 0 1 19.6923 15.438764z m-22.646145-10.200612l-5.90769 10.200612h21.897837a22.843068 22.843068 0 0 0-15.990147-10.279381zM1107.691882 0.000394H73.846125A73.727972 73.727972 0 0 0 0 73.649596v144.974714A73.727972 73.727972 0 0 0 73.846125 292.234128h1033.845757A73.727972 73.727972 0 0 0 1181.538007 218.62431V73.649596A73.767356 73.767356 0 0 0 1107.691882 0.000394z m0 218.584531H73.846125V73.610212h1033.845757V218.584925z m0 147.298405H73.846125A73.727972 73.727972 0 0 0 0 439.493148v144.974713a73.767356 73.767356 0 0 0 73.846125 73.649203h1033.845757A73.767356 73.767356 0 0 0 1181.538007 584.467861v-144.974713a73.727972 73.727972 0 0 0-73.846125-73.609818z m0 218.584531H73.846125v-144.974713h1033.845757v144.974713z m0 147.298405H73.846125A73.727972 73.727972 0 0 0 0 805.376084v144.974714A73.727972 73.727972 0 0 0 73.846125 1024h1033.845757A73.767356 73.767356 0 0 0 1181.538007 950.350798v-144.974714a73.727972 73.727972 0 0 0-73.846125-73.609818z m0 218.584532H73.846125v-144.974714h1033.845757v144.974714zM867.682128 109.29266h102.715037a36.824601 36.824601 0 1 1 0 73.649202h-102.715037a36.824601 36.824601 0 1 1 0-73.649202z m-174.198087 731.765872h276.913124a36.824601 36.824601 0 1 1 0 73.649202h-276.913124a36.824601 36.824601 0 1 1 0-73.649202z m0 0" p-id="1748"></path></svg>