<?xml version="1.0" standalone="no"?><!DOCTYPE svg PUBLIC "-//W3C//DTD SVG 1.1//EN" "http://www.w3.org/Graphics/SVG/1.1/DTD/svg11.dtd"><svg t="1600246312890" class="icon" viewBox="0 0 1024 1024" version="1.1" xmlns="http://www.w3.org/2000/svg" p-id="1792" xmlns:xlink="http://www.w3.org/1999/xlink" width="200" height="200"><defs><style type="text/css"></style></defs><path d="M512 103.424v3.072-3.072c-4.096 4.096-190.464 178.176-184.32 288.768 3.072 98.304 86.016 175.104 183.296 172.032H512c98.304 3.072 180.224-73.728 184.32-172.032C702.464 282.624 516.096 107.52 512 103.424z m156.672 288.768C665.6 475.136 595.968 540.672 512 538.624c-82.944 2.048-153.6-63.488-155.648-146.432C349.184 296.96 512 138.24 512 138.24s162.816 157.696 156.672 253.952z m-297.984-2.048c2.048 75.776 65.536 135.168 141.312 133.12 63.488-1.024 118.784-43.008 136.192-104.448-32.768-23.552-114.688-17.408-114.688-17.408-56.32-1.024-111.616-20.48-155.648-55.296-4.096 14.336-7.168 29.696-7.168 44.032M512 676.864z m-204.8 0h-4.096 7.168-3.072z m589.824-26.624l5.12 2.048-5.12-2.048z m-775.168 2.048l5.12-2.048-5.12 2.048z m73.728-22.528h-8.192 8.192z m636.928 0zM191.488 614.4c-10.24 0-20.48 2.048-30.72 6.144L102.4 643.072l10.24 30.72 48.128-23.552c10.24-4.096 20.48-6.144 30.72-6.144 18.432 0 36.864 6.144 51.2 18.432l14.336 11.264c15.36 12.288 32.768 18.432 51.2 18.432 18.432 0 35.84-6.144 51.2-18.432 15.36-12.288 32.768-18.432 51.2-18.432 18.432 0 35.84 6.144 51.2 17.408 15.36 12.288 32.768 17.408 51.2 17.408 18.432 0 35.84-6.144 51.2-18.432 15.36-12.288 32.768-18.432 51.2-18.432 18.432 0 35.84 6.144 51.2 18.432 15.36 12.288 32.768 18.432 51.2 18.432 18.432 0 35.84-6.144 51.2-18.432l14.336-11.264c14.336-12.288 32.768-18.432 51.2-18.432 10.24 0 20.48 2.048 30.72 6.144l48.128 23.552 10.24-30.72-58.368-23.552c-10.24-4.096-20.48-6.144-30.72-6.144-18.432 0-36.864 6.144-51.2 17.408L768 643.072c-15.36 12.288-32.768 17.408-51.2 17.408-18.432 0-35.84-6.144-51.2-18.432-15.36-12.288-32.768-18.432-51.2-18.432-18.432 0-35.84 6.144-51.2 17.408-15.36 12.288-32.768 17.408-51.2 17.408-18.432 0-35.84-6.144-51.2-18.432-15.36-12.288-32.768-18.432-51.2-18.432-18.432 0-35.84 6.144-51.2 18.432-15.36 12.288-32.768 18.432-51.2 18.432-18.432 0-35.84-6.144-51.2-18.432l-14.336-11.264c-14.336-8.192-32.768-14.336-50.176-14.336zM512 789.504z m-204.8 0h-4.096 7.168-3.072z m589.824-26.624l5.12 2.048-5.12-2.048z m-775.168 2.048l5.12-2.048-5.12 2.048z m73.728-22.528h-8.192 8.192z m636.928 0zM191.488 727.04c-10.24 0-20.48 2.048-30.72 6.144L102.4 755.712l10.24 30.72 48.128-23.552c10.24-4.096 20.48-6.144 30.72-6.144 18.432 0 36.864 6.144 51.2 18.432l14.336 11.264c15.36 12.288 32.768 18.432 51.2 18.432 18.432 0 35.84-6.144 51.2-18.432 15.36-12.288 32.768-18.432 51.2-18.432 18.432 0 35.84 6.144 51.2 17.408 15.36 12.288 32.768 17.408 51.2 17.408 18.432 0 35.84-6.144 51.2-18.432 15.36-12.288 32.768-18.432 51.2-18.432 18.432 0 35.84 6.144 51.2 18.432 15.36 12.288 32.768 18.432 51.2 18.432 18.432 0 35.84-6.144 51.2-18.432l14.336-11.264c14.336-12.288 32.768-18.432 51.2-18.432 10.24 0 20.48 2.048 30.72 6.144l48.128 23.552 10.24-30.72-58.368-23.552c-10.24-4.096-20.48-6.144-30.72-6.144-18.432 0-36.864 6.144-51.2 17.408L768 755.712C752.64 768 735.232 773.12 716.8 773.12c-18.432 0-35.84-6.144-51.2-18.432-15.36-12.288-32.768-18.432-51.2-18.432-18.432 0-35.84 6.144-51.2 17.408-15.36 12.288-32.768 17.408-51.2 17.408-18.432 0-35.84-6.144-51.2-18.432-15.36-12.288-32.768-18.432-51.2-18.432-18.432 0-35.84 6.144-51.2 18.432-15.36 12.288-32.768 18.432-51.2 18.432-18.432 0-35.84-6.144-51.2-18.432l-14.336-11.264c-14.336-8.192-32.768-14.336-50.176-14.336zM512 902.144z m-204.8 0h-4.096 7.168-3.072z m589.824-26.624l5.12 2.048-5.12-2.048z m-775.168 2.048l5.12-2.048-5.12 2.048z m73.728-22.528h-8.192 8.192z m636.928 0zM191.488 839.68c-10.24 0-20.48 2.048-30.72 6.144L102.4 868.352l10.24 30.72 48.128-23.552c10.24-4.096 20.48-6.144 30.72-6.144 18.432 0 36.864 6.144 51.2 18.432l14.336 11.264c15.36 12.288 32.768 18.432 51.2 18.432 18.432 0 35.84-6.144 51.2-18.432 15.36-12.288 32.768-18.432 51.2-18.432 18.432 0 35.84 6.144 51.2 17.408 15.36 12.288 32.768 17.408 51.2 17.408 18.432 0 35.84-6.144 51.2-18.432 15.36-12.288 32.768-18.432 51.2-18.432 18.432 0 35.84 6.144 51.2 18.432 15.36 12.288 32.768 18.432 51.2 18.432 18.432 0 35.84-6.144 51.2-18.432l14.336-11.264c14.336-12.288 32.768-18.432 51.2-18.432 10.24 0 20.48 2.048 30.72 6.144l48.128 23.552 10.24-30.72-58.368-23.552c-10.24-4.096-20.48-6.144-30.72-6.144-18.432 0-36.864 6.144-51.2 17.408L768 868.352c-15.36 12.288-32.768 17.408-51.2 17.408-18.432 0-35.84-6.144-51.2-18.432-15.36-12.288-32.768-18.432-51.2-18.432-18.432 0-35.84 6.144-51.2 17.408-15.36 12.288-32.768 17.408-51.2 17.408-18.432 0-35.84-6.144-51.2-18.432-15.36-12.288-32.768-18.432-51.2-18.432-18.432 0-35.84 6.144-51.2 18.432-15.36 12.288-32.768 18.432-51.2 18.432-18.432 0-35.84-6.144-51.2-18.432l-14.336-11.264c-14.336-8.192-32.768-14.336-50.176-14.336z" p-id="1793"></path></svg>