<?xml version="1.0" standalone="no"?><!DOCTYPE svg PUBLIC "-//W3C//DTD SVG 1.1//EN" "http://www.w3.org/Graphics/SVG/1.1/DTD/svg11.dtd"><svg t="1600246316967" class="icon" viewBox="0 0 1024 1024" version="1.1" xmlns="http://www.w3.org/2000/svg" p-id="1922" xmlns:xlink="http://www.w3.org/1999/xlink" width="200" height="200"><defs><style type="text/css"></style></defs><path d="M349.696 117.248c-17.92 0-31.744-14.336-31.744-31.744v-53.76C317.44 14.336 331.776 0 349.696 0s32.256 14.336 32.256 31.744v53.248c-0.512 17.92-14.848 32.256-32.256 32.256z" p-id="1923"></path><path d="M518.656 1024l-382.464-1.536c-47.104 0-84.992-38.4-84.992-85.504V138.24c0-47.104 38.4-85.504 85.504-85.504h425.984c47.104 0 85.504 38.4 85.504 85.504v461.312c0 17.92-14.336 31.744-31.744 31.744s-31.744-14.336-31.744-31.744v-460.8c0-11.776-9.728-21.504-21.504-21.504H136.704c-11.776 0-21.504 9.728-21.504 21.504v798.72c0 11.776 9.728 21.504 21.504 21.504l382.464 1.536c17.92 0 31.744 14.336 31.744 32.256 0 16.896-14.336 31.232-32.256 31.232z" p-id="1924"></path><path d="M293.376 261.12h-84.992c-17.92 0-31.744-14.336-31.744-31.744 0-17.92 14.336-31.744 31.744-31.744h84.992c17.92 0 31.744 14.336 31.744 31.744 0.512 17.408-13.824 31.744-31.744 31.744z m197.12 0h-84.992c-17.92 0-31.744-14.336-31.744-31.744 0-17.92 14.336-31.744 31.744-31.744h84.992c17.92 0 31.744 14.336 31.744 31.744 0.512 17.408-13.824 31.744-31.744 31.744z m-197.12 153.6h-84.992c-17.92 0-31.744-14.336-31.744-31.744s14.336-31.744 31.744-31.744h84.992c17.92 0 31.744 14.336 31.744 31.744s-13.824 31.744-31.744 31.744z m197.12 0h-84.992c-17.92 0-31.744-14.336-31.744-31.744s14.336-31.744 31.744-31.744h84.992c17.92 0 31.744 14.336 31.744 31.744s-13.824 31.744-31.744 31.744z m-197.12 153.6h-84.992c-17.92 0-31.744-14.336-31.744-32.256s14.336-31.744 31.744-31.744h84.992c17.92 0 31.744 14.336 31.744 31.744s-13.824 32.256-31.744 32.256z m197.12 0h-84.992c-17.92 0-31.744-14.336-31.744-32.256s14.336-31.744 31.744-31.744h84.992c17.92 0 31.744 14.336 31.744 31.744s-13.824 32.256-31.744 32.256z m-197.12 153.088h-84.992c-17.92 0-31.744-14.336-31.744-31.744 0-17.92 14.336-31.744 31.744-31.744h84.992c17.92 0 31.744 14.336 31.744 31.744 0.512 17.92-13.824 31.744-31.744 31.744z m197.12 0h-84.992c-17.92 0-31.744-14.336-31.744-31.744 0-17.92 14.336-31.744 31.744-31.744h84.992c17.92 0 31.744 14.336 31.744 31.744 0.512 17.92-13.824 31.744-31.744 31.744z m327.68-153.088h-84.992c-17.92 0-31.744-14.336-31.744-32.256s14.336-31.744 31.744-31.744h84.992c17.92 0 31.744 14.336 31.744 31.744s-14.336 32.256-31.744 32.256z m-394.24 454.144H274.944c-17.92 0-31.744-14.336-31.744-31.744V841.728c0-17.92 14.336-31.744 31.744-31.744h148.992c17.92 0 31.744 14.336 31.744 31.744V990.72c0.512 17.408-13.824 31.744-31.744 31.744z m-116.736-64h84.992v-84.992H307.2v84.992z" p-id="1925"></path><path d="M615.936 631.808c-17.92 0-31.744-14.336-31.744-31.744v-202.24c0-17.92 14.336-31.744 31.744-31.744h319.488c17.92 0 31.744 14.336 31.744 31.744v163.328c0 17.92-14.336 31.744-31.744 31.744-17.92 0-31.744-14.336-31.744-31.744V429.568H648.192v170.496c-0.512 17.408-14.848 31.744-32.256 31.744z m219.648 116.736c-43.008 0-70.656-20.48-90.624-35.328-13.824-10.24-22.528-16.384-31.232-16.384-33.792 0-69.12 29.696-79.872 41.472-12.288 12.8-32.256 13.312-45.056 1.536-12.8-12.288-13.824-32.256-1.536-45.056 5.632-6.144 59.392-61.44 126.976-61.44 30.208 0 52.224 15.872 69.632 28.672 16.896 12.8 30.72 22.528 52.224 22.528 44.544 0 80.896-40.448 81.408-40.448 11.776-13.312 31.744-14.336 45.056-2.56 13.312 11.776 14.336 31.744 3.072 45.056-3.072 2.048-56.32 61.952-130.048 61.952z m0 137.728c-43.008 0-70.656-20.48-90.624-35.328-13.824-10.24-22.528-16.384-31.232-16.384-34.304 0-69.12 29.696-79.872 40.96-11.776 12.8-32.256 13.824-45.056 2.048-12.8-11.776-13.824-32.256-2.048-45.056 2.56-2.56 57.344-61.952 126.976-61.952 30.208 0 52.224 15.872 69.632 28.672 16.896 12.8 30.72 22.528 52.224 22.528 44.544 0 80.896-40.448 81.408-40.448 11.776-13.312 31.744-14.336 45.056-2.56 13.312 11.776 14.336 31.744 3.072 45.056-2.56 2.56-55.808 62.464-129.536 62.464z m0 137.728c-43.008 0-70.656-20.48-90.624-35.328-13.824-10.24-22.528-16.384-31.232-16.384-33.792 0-69.12 29.696-79.872 41.472-12.288 12.8-32.256 13.312-45.056 1.536-12.8-12.288-13.824-32.256-1.536-45.056 5.632-6.144 59.392-61.44 126.976-61.44 30.208 0 52.224 15.872 69.632 28.672 16.896 12.8 30.72 22.528 52.224 22.528 44.544 0 80.896-40.448 81.408-40.448 11.776-13.312 31.744-14.336 45.056-2.56 13.312 11.776 14.336 31.744 3.072 45.056-3.072 2.048-56.32 61.952-130.048 61.952z" p-id="1926"></path></svg>