<?xml version="1.0" standalone="no"?><!DOCTYPE svg PUBLIC "-//W3C//DTD SVG 1.1//EN" "http://www.w3.org/Graphics/SVG/1.1/DTD/svg11.dtd"><svg t="1600246074258" class="icon" viewBox="0 0 1024 1024" version="1.1" xmlns="http://www.w3.org/2000/svg" p-id="4521" xmlns:xlink="http://www.w3.org/1999/xlink" width="200" height="200"><defs><style type="text/css"></style></defs><path d="M409.6 341.333L238.933 512l68.267 68.267L477.867 409.6v-34.133L512 341.333l34.133 34.134V409.6L716.8 580.267 785.067 512 614.4 341.333h-34.133L546.133 307.2l34.134-34.133H614.4L785.067 102.4 716.8 34.133 546.133 204.8v34.133L512 273.067l-34.133-34.134V204.8L307.2 34.133 238.933 102.4 409.6 273.067h34.133l34.134 34.133-34.134 34.133H409.6z m375.467 546.134H716.8L648.533 614.4 512 477.867 375.467 614.4 307.2 887.467h-68.267a34.133 34.133 0 1 0 0 68.266h546.134a34.133 34.133 0 0 0 0-68.266z m-238.934 0h-68.266V784.93c0-18.773 15.223-33.997 33.996-33.997 18.91 0 34.27 15.36 34.27 34.27v102.264z" p-id="4522"></path></svg>