<?xml version="1.0" standalone="no"?><!DOCTYPE svg PUBLIC "-//W3C//DTD SVG 1.1//EN" "http://www.w3.org/Graphics/SVG/1.1/DTD/svg11.dtd"><svg t="1600246048968" class="icon" viewBox="0 0 1024 1024" version="1.1" xmlns="http://www.w3.org/2000/svg" p-id="3696" xmlns:xlink="http://www.w3.org/1999/xlink" width="200" height="200"><defs><style type="text/css"></style></defs><path d="M222.102 765.067a24.785 24.785 0 0 1-22.365-35.407L308.46 501.07a24.785 24.785 0 1 1 44.767 21.244L244.503 750.916a24.785 24.785 0 0 1-22.4 14.151z m416.011 0a24.785 24.785 0 0 1-22.672-14.682l-103.543-231.61a24.785 24.785 0 0 1 45.25-20.242l103.579 231.623a24.785 24.785 0 0 1-22.614 34.911z" p-id="3697"></path><path d="M669.378 966.865H194.46a25.493 25.493 0 0 1-25.493-25.494v-201.1a25.493 25.493 0 0 1 25.493-25.494h168.774a25.493 25.493 0 0 1 0 50.986h-143.28v150.103h423.93V765.763h-56.416a25.493 25.493 0 0 1 0-50.986h81.909a25.493 25.493 0 0 1 25.493 25.493v201.101a25.493 25.493 0 0 1-25.493 25.494z" p-id="3698"></path><path d="M499.954 348.017l97.866-167.971 373.428 123.04L558.612 421.64l-58.658-73.624zM393.048 576.181l-87.125 424.64 291.897-265-97.866-184.153-106.906 24.513zM353.026 354.51L43.355 82.227l64.323 365.45h197.159l48.19-93.168z" p-id="3699"></path><path d="M310.939 476.085h-0.189l-196.793-1.463a24.785 24.785 0 0 1-24.16-20.159L13.955 55.813a24.785 24.785 0 0 1 41.898-22.129l315.278 316.068a24.785 24.785 0 1 1-35.1 35.006L77.723 125.802l56.947 299.403 176.481 1.31a24.785 24.785 0 0 1-0.177 49.57zM291.04 1024a24.785 24.785 0 0 1-23.924-31.23l113.516-421.534a24.785 24.785 0 1 1 47.859 12.888l-92.543 343.64 230.808-199.025-89.403-157.503a24.785 24.785 0 0 1 43.114-24.466l99.459 175.218a24.785 24.785 0 0 1-5.37 31.005L307.22 1017.981A24.785 24.785 0 0 1 291.04 1024z m256.513-576.087a24.785 24.785 0 0 1-6.373-48.744l360.174-96.013-287.766-100.32L517.8 365.874a24.785 24.785 0 1 1-42.749-25.103l106.163-180.648a24.785 24.785 0 0 1 29.506-10.846l383.141 133.65a24.785 24.785 0 0 1-1.782 47.351L553.95 447.122a24.785 24.785 0 0 1-6.397 0.791zM291.04 806.517h-99.4a11.614 11.614 0 1 1 0-23.227h99.4a11.614 11.614 0 0 1 0 23.227z m383.625 75.524h-167.37a12.393 12.393 0 0 1 0-24.785h167.358a12.393 12.393 0 0 1 0 24.785z m16.051-772.468a12.334 12.334 0 0 1-7.293-2.36C588.59 37.921 472.632 11 357.063 31.383a12.393 12.393 0 0 1-4.308-24.408 450.934 450.934 0 0 1 345.303 80.198 12.393 12.393 0 0 1-7.318 22.424z m-398.142 39.975a12.393 12.393 0 0 1-4.898-23.782 361.991 361.991 0 0 1 209.269-23.168 12.393 12.393 0 0 1-4.603 24.36 337.195 337.195 0 0 0-194.882 21.587 12.357 12.357 0 0 1-4.886 1.003z m-83.702-64.405a12.393 12.393 0 0 1-6.28-23.086 450.309 450.309 0 0 1 79.16-36.587 12.393 12.393 0 0 1 8.167 23.404 425.43 425.43 0 0 0-74.792 34.569 12.334 12.334 0 0 1-6.255 1.7z" p-id="3700"></path><path d="M431.913 598.051a138.513 138.513 0 1 1 138.513-138.513 138.666 138.666 0 0 1-138.513 138.513z m0-227.456a88.943 88.943 0 1 0 88.943 88.943 89.05 89.05 0 0 0-88.943-88.943z" p-id="3701"></path><path d="M432.138 521.04a61.502 61.502 0 1 1 61.502-61.502 12.393 12.393 0 0 1-24.785 0 36.717 36.717 0 1 0-36.717 36.718 12.393 12.393 0 0 1 0 24.785z" p-id="3702"></path><path d="M247.347 364.694a12.357 12.357 0 0 1-8.78-3.647L138.021 259.983a12.393 12.393 0 1 1 17.574-17.479L256.14 343.568a12.393 12.393 0 0 1-8.793 21.126zM590.998 336.7a12.393 12.393 0 0 1-10.374-19.214l45.002-69.103a12.393 12.393 0 0 1 20.76 13.631l-44.99 69.056a12.38 12.38 0 0 1-10.398 5.63zM426.354 816.726a12.393 12.393 0 0 1-8.12-21.752l86.665-75.157a12.393 12.393 0 0 1 16.24 18.66l-86.664 75.157a12.345 12.345 0 0 1-8.12 3.092z" p-id="3703"></path><path d="M661.789 807.284h-63.426a12.393 12.393 0 0 1 0-24.785h63.426a12.393 12.393 0 0 1 0 24.785zM420.76 459.538a11.378 11.378 0 1 0 22.755 0 11.378 11.378 0 1 0-22.755 0z" p-id="3704"></path></svg>