<?xml version="1.0" standalone="no"?><!DOCTYPE svg PUBLIC "-//W3C//DTD SVG 1.1//EN" "http://www.w3.org/Graphics/SVG/1.1/DTD/svg11.dtd"><svg t="1600246056154" class="icon" viewBox="0 0 1024 1024" version="1.1" xmlns="http://www.w3.org/2000/svg" p-id="3979" xmlns:xlink="http://www.w3.org/1999/xlink" width="200" height="200"><defs><style type="text/css"></style></defs><path d="M494.4 960.2H386.8l35.9-537.7h35.8z m250.9-71.7h-71.7V530.1h35.8zM386.9 350.8a35.8 35.8 0 1 0 71.6 0 35.8 35.8 0 1 0-71.6 0zM637.8 458.4a35.8 35.8 0 1 0 71.6 0 35.8 35.8 0 1 0-71.6 0zM458.5 315l35.9-35.8L817 171.6h35.8L494.4 350.8z m250.9 107.5l71.7-35.8 143.4-35.9h35.9L745.3 458.4zM351 350.8l35.8 35.9-71.7 358.4-35.8 36.8 35.8-431.1z m286.7 141.5v36.8l-71.6 144.4h-35.9l71.7-181.2z m0-69.8h-35.8l-71.7-71.7h35.9l71.6 35.9zM386.8 315H351L64.2 99.9V64.1l358.5 215.1z" p-id="3980"></path></svg>