<?xml version="1.0" standalone="no"?><!DOCTYPE svg PUBLIC "-//W3C//DTD SVG 1.1//EN" "http://www.w3.org/Graphics/SVG/1.1/DTD/svg11.dtd"><svg t="1600246062264" class="icon" viewBox="0 0 1024 1024" version="1.1" xmlns="http://www.w3.org/2000/svg" p-id="4258" xmlns:xlink="http://www.w3.org/1999/xlink" width="200" height="200"><defs><style type="text/css"></style></defs><path d="M614.4 1024H409.6c-3.413 0-10.24-3.413-13.653-6.827-3.414-3.413-3.414-10.24-3.414-13.653l68.267-409.6c0-6.827 6.827-13.653 17.067-13.653h68.266c6.827 0 17.067 6.826 17.067 13.653l68.267 409.6c0 3.413 0 10.24-3.414 13.653-3.413 3.414-10.24 6.827-13.653 6.827z m-184.32-34.133h163.84L532.48 614.4h-40.96l-61.44 375.467zM512 409.6c-47.787 0-85.333-37.547-85.333-85.333 0-20.48 17.066-119.467 51.2-296.96C481.28 13.653 494.933 0 512 0s30.72 10.24 34.133 27.307c34.134 174.08 51.2 273.066 51.2 293.546 0 51.2-37.546 88.747-85.333 88.747z m0-375.467c-47.787 235.52-51.2 279.894-51.2 286.72 0 27.307 23.893 51.2 51.2 51.2s51.2-23.893 51.2-51.2c0-6.826-3.413-51.2-51.2-286.72zM143.36 706.56c-10.24 0-23.893-6.827-30.72-17.067-6.827-13.653-6.827-30.72 6.827-44.373 133.12-116.053 211.626-180.907 228.693-191.147 20.48-10.24 44.373-13.653 64.853-10.24 20.48 6.827 40.96 20.48 51.2 40.96 10.24 20.48 13.654 44.374 6.827 64.854-6.827 20.48-20.48 40.96-40.96 51.2-17.067 10.24-112.64 44.373-279.893 102.4 0 3.413-3.414 3.413-6.827 3.413z m249.173-228.693c-10.24 0-17.066 3.413-23.893 6.826-6.827 3.414-44.373 30.72-225.28 187.734 225.28-78.507 266.24-95.574 276.48-98.987 10.24-6.827 20.48-17.067 23.893-30.72s3.414-27.307-3.413-37.547-17.067-20.48-30.72-23.893c-6.827-3.413-10.24-3.413-17.067-3.413zM880.64 706.56c-3.413 0-6.827 0-10.24-3.413-167.253-58.027-262.827-92.16-279.893-102.4-20.48-10.24-34.134-30.72-40.96-51.2-6.827-20.48-3.414-44.374 10.24-64.854 10.24-20.48 30.72-34.133 51.2-40.96 20.48-6.826 44.373-3.413 64.853 10.24 17.067 10.24 95.573 75.094 228.693 191.147 13.654 10.24 13.654 27.307 6.827 44.373-6.827 10.24-20.48 17.067-30.72 17.067zM604.16 573.44c6.827 3.413 47.787 23.893 276.48 98.987-180.907-157.014-218.453-184.32-225.28-187.734-10.24-6.826-27.307-10.24-37.547-6.826-13.653 3.413-23.893 13.653-30.72 23.893-6.826 10.24-10.24 27.307-6.826 37.547s13.653 27.306 23.893 34.133z" p-id="4259"></path><path d="M512 546.133c-47.787 0-85.333-37.546-85.333-85.333s37.546-85.333 85.333-85.333 85.333 37.546 85.333 85.333-37.546 85.333-85.333 85.333z m0-136.533c-27.307 0-51.2 23.893-51.2 51.2S484.693 512 512 512s51.2-23.893 51.2-51.2-23.893-51.2-51.2-51.2z" p-id="4260"></path></svg>